PathFileType	4	(X/Y/Z)	Patient4_TMGait_0pt4_02_left_30.trc.trc
DataRate	CameraRate	NumFrames	NumMarkers	Units	OrigDataRate	OrigDataStartFrame	OrigNumFrames
76.923076923077	76.923076923077	4	33	mm	76.923076923077	124	       141
Frame#	Time	Sacral			L.Shoulder			Chest			R.Shoulder			Neck			R.ASIS			L.ASIS			R.Thigh.Superior			R.Thigh.Lateral			R.Thigh.Inferior			R.Patella			L.Thigh.Superior			L.Thigh.Lateral			L.Thigh.Inferior			L.Patella			L.Shank.Superior			L.Shank.Lateral			L.Shank.Inferior			R.Shank.Superior			R.Shank.Lateral			R.Shank.Inferior			R.Heel			R.Midfoot.Superior			R.Midfoot.Lateral			R.Toe			L.Heel			L.Midfoot.Lateral			L.Midfoot.Superior			L.Toe			L.Elbow			L.Wrist			R.Elbow			R.Wrist			
		X1	Y1	Z1	X2	Y2	Z2	X3	Y3	Z3	X4	Y4	Z4	X5	Y5	Z5	X6	Y6	Z6	X7	Y7	Z7	X8	Y8	Z8	X9	Y9	Z9	X10	Y10	Z10	X11	Y11	Z11	X12	Y12	Z12	X13	Y13	Z13	X14	Y14	Z14	X15	Y15	Z15	X16	Y16	Z16	X17	Y17	Z17	X18	Y18	Z18	X19	Y19	Z19	X20	Y20	Z20	X21	Y21	Z21	X22	Y22	Z22	X23	Y23	Z23	X24	Y24	Z24	X25	Y25	Z25	X26	Y26	Z26	X27	Y27	Z27	X28	Y28	Z28	X29	Y29	Z29	X30	Y30	Z30	X31	Y31	Z31	X32	Y32	Z32	X33	Y33	Z33	

124	41.839000000000	858.783918318474	1001.075694931182	514.332568301533	1008.071911989795	1436.771411358410	327.771315938701	1133.655655252528	1364.554600396745	471.256061754863	1071.469085434833	1431.408971901998	656.221952203451	1015.538261103192	1491.225365757137	485.366680446023	1096.319130198930	936.842664398731	609.269817719283	1057.550278828908	959.383515803768	336.582173082409	1091.978126261439	723.848108274686	581.503518012078	989.074243491316	629.801859073478	647.966132779483	1045.526773097455	564.442920708280	566.236360896540	1027.937657191953	480.377680608253	571.945951742531	1132.188833174902	768.094936101831	359.509855260798	1072.795014079556	638.324012354385	288.588606662421	1179.643037034666	578.819969104573	341.746680168641	1200.581842384003	509.233719070873	339.556163493215	1175.753121010465	435.293950820777	330.617590951416	1091.152581301974	315.352842146409	282.512157149231	1166.089971216994	205.191643897866	333.326045382783	989.197705511087	397.062279817348	579.434387314319	909.210379469238	301.470237057259	644.886295536221	937.521914068332	203.034435862618	577.920399289006	790.529930834113	43.163565732266	550.475813509206	962.549370461837	95.837423135803	582.638713370334	875.231560227398	36.798322392612	623.466500290428	1083.233354078333	42.547755224160	607.525377905962	1061.950729706094	40.998834011927	375.145494801278	1131.039057987309	38.420194329471	290.919966701213	1213.117912174374	103.547402425694	311.134973054077	1340.226425198515	57.312435333335	275.543750507770	869.424362122656	1112.275918764013	233.795258080977	840.660595631725	852.012507491101	231.007503783380	1209.169086135139	1122.768927825961	774.939242799487	1439.875107723351	1187.907433492604	699.706186716970	
125	41.852000000000	859.769302221867	1000.296726836671	511.563021643718	1008.264511975934	1435.724977339898	324.638362816987	1133.819933393310	1364.255432063784	468.511167012485	1070.900888565008	1431.108516630251	653.306002570160	1015.228343986546	1490.526986997060	482.209791110876	1097.112106068318	936.224911728848	607.568099180092	1059.327785404853	958.193172617612	334.863583083099	1092.271419184096	722.908086960351	580.301462895318	988.534600710900	629.365045757609	646.480308352157	1044.815082996373	563.501924017775	565.051130526841	1026.768759435332	479.163187336133	570.714659669873	1133.566014642892	766.191280557677	358.576534355803	1072.735802067406	636.847063250604	288.496598065578	1179.293263502563	576.951034571745	341.936358446987	1198.924420406332	506.531325087270	340.180580811999	1173.363903136827	432.435706825391	331.110391267730	1087.105883801940	313.484818484724	283.341668479691	1160.104999899218	202.411703885143	334.773490565787	987.074610750438	396.322092694473	578.399370531303	906.217213620680	301.645477221225	644.176135307321	933.486272523662	202.775139810421	577.526432410843	785.357202957439	43.485222170666	550.569908174143	957.462022427644	95.848310487016	582.647098994698	870.070819964791	36.848444195256	623.488372022082	1078.075700098256	42.292879425037	607.597019239858	1053.214706153506	40.125826193548	376.737464871350	1122.211825550625	37.130598207493	292.341552140357	1205.277082344698	100.784664820475	313.129205667540	1332.037770673046	52.813362848414	277.161759197663	871.158278864180	1110.509159869562	230.573452636618	843.771679552827	850.117534165708	227.303304857703	1207.747214423827	1121.179064658610	771.427625350417	1440.369403131837	1182.220261977836	697.526282558970	
126	41.865000000000	860.720938004377	999.671027182113	508.767130053945	1008.657020588629	1434.767687544628	321.393398220215	1134.101535982550	1364.045690949143	465.725322796401	1070.419799879888	1431.000985154691	650.303877571604	1015.054790457202	1489.991315995369	478.916235343867	1097.860371906483	935.708507339956	605.761343270943	1061.010263442967	957.237423930428	333.059271060375	1092.774742720989	722.113441737846	578.922641991996	988.416742789855	628.934637499147	644.835632436805	1044.616074999308	562.633399812084	563.698811738733	1026.131886541458	477.917862760056	569.335377475947	1134.793946423967	764.533811355859	357.661867746148	1072.859589918657	635.863774851892	287.995979193891	1178.890962241080	575.428199987603	341.978966827365	1197.257775461118	504.291799520694	340.503207248564	1171.159486520890	430.098538996810	331.220672965984	1083.682775600103	311.992969036735	283.521032919711	1154.812420138917	200.197025296292	335.725433700036	985.401602487968	395.554713221910	577.250057642661	903.550903616370	301.918123346211	643.359831496457	929.672380426037	202.565236948571	577.089653345856	780.229361008775	44.031705888922	550.682174175584	952.480292241269	95.905338240664	582.677685439484	864.963581258241	36.988950707965	623.515077021845	1072.979312785732	41.973637468940	607.677494300364	1045.550086285966	39.405401814843	377.695028175024	1114.538695992376	36.247498000993	293.204471518270	1198.252982499347	98.811253484723	314.591654284737	1324.838026506038	49.629578386761	278.399907807334	873.577650442407	1108.593988227023	227.063172081072	848.025267318316	848.023485685443	223.155272087853	1205.747310153752	1119.438481664832	767.908601979974	1440.600528763254	1175.245650304611	695.507960021192	
127	41.878000000000	861.616268908709	999.234854107589	505.976493469225	1009.234232241699	1433.953151963949	318.089904073807	1134.494196369800	1363.940312243208	462.924845795834	1070.070839418927	1431.113196745012	647.245519896358	1015.029405948965	1489.653727960617	475.534687492809	1098.536517047987	935.336895891057	603.828202338404	1062.524221767445	956.573123599368	331.130417509249	1093.427401668897	721.513040774580	577.342560022691	988.686064090624	628.554230304627	643.038935229509	1044.911317108442	561.880129791500	562.195405457987	1026.021021062771	476.680999496814	567.857947945715	1135.847661032836	763.241076535023	356.665743223051	1073.160072497865	635.380743269798	287.050755719664	1178.454945089796	574.291256770367	341.746178545211	1195.626164112775	502.561496805170	340.440057902004	1169.172033406267	428.305221424134	330.949292048454	1080.881545930824	310.901092081930	283.084397988015	1150.199068856862	198.559824965054	336.216948002097	984.175755693702	394.798485459081	576.022916964593	901.197826122254	302.329604512653	642.454332454130	926.093164888510	202.445722717128	576.631600099908	775.157608130527	44.870147225602	550.812289595440	947.629303611264	96.024116644671	582.742748172938	859.918346122446	37.255946743622	623.549937785334	1067.948749552061	41.590430022490	607.766106237289	1038.916129312575	38.875188096823	378.123910894810	1107.948955041845	35.728782989291	293.595569917866	1192.032853948195	97.561131680349	315.534254267277	1318.570810046634	47.605734695738	279.234690927937	876.694621878958	1106.595955039052	223.291484629699	853.425104956678	845.806389097502	218.610146218344	1203.191474954002	1117.602121308409	764.383303453564	1440.502041591699	1166.977970458530	693.641300522223	
